# xmcd
#
# Track frame offsets: 
#        150
#        25415
#        55757
#        75345
#        106267
#        129677
#        176250
#        205937
#
# Disc length: 3420 seconds
#
# Revision: 1
# Processed by: cddbd v1.5.2PL0 Copyright (c) Steve Scherf et al.
# Submitted via: ExactAudioCopy v0.99pb4
#
DISCID=5e0d5a08
DTITLE=Meat Loaf - Live At The Bottom Line Club (Bad Attitude Tour 85)
DYEAR=1985
DGENRE=Rock
TTITLE0=Bad Attitude
TTITLE1=Dead Ringer For Love
TTITLE2=Jumpin`The Gun
TTITLE3=Nowhere Fast
TTITLE4=Piece Of The Action
TTITLE5=All Revved Up With No Place To Go
TTITLE6=Modern Girl
TTITLE7=Bat Out Of Hell
EXTD=
EXTT0=
EXTT1=
EXTT2=
EXTT3=
EXTT4=
EXTT5=
EXTT6=
EXTT7=
PLAYORDER=
